<?xml version="1.0" encoding="UTF-8"?>
<!DOCTYPE svg PUBLIC "-//W3C//DTD SVG 1.1//EN" "http://www.w3.org/Graphics/SVG/1.1/DTD/svg11.dtd" [
  <!ENTITY stroke_color "#666666">
  <!ENTITY fill_color "#FFFFFF">
]>
<svg version="1.1" xmlns="http://www.w3.org/2000/svg" xmlns:xlink="http://www.w3.org/1999/xlink" 
     width="55px" height="55px" viewBox="0 0 55 55">

  <!-- Outer circle - main shape with fill_color -->
  <circle cx="27.5" cy="27.5" r="22.5" fill="&fill_color;" stroke="&stroke_color;" stroke-width="3.5" />

  <!-- Main content paths using stroke_color -->
  <path fill-rule="evenodd" fill="&stroke_color;" d="
    M 27.5,43
    L 16,36
    L 16,30
    L 21.5,27
    L 27.5,24
    L 33.5,27
    L 39,30
    L 39,36
    L 27.5,43 Z

    M 27.5,25.5
    L 24,27
    L 27.5,28.5
    L 31,27
    L 27.5,25.5 Z

    M 21.5,28.5
    L 18,30
    L 21.5,31.5
    L 25,30
    L 21.5,28.5 Z

    M 33.5,28.5
    L 30,30
    L 33.5,31.5
    L 37,30
    L 33.5,28.5 Z

    M 21.5,34.5
    L 18,36
    L 21.5,37.5
    L 25,36
    L 21.5,34.5 Z

    M 33.5,34.5
    L 30,36
    L 33.5,37.5
    L 37,36
    L 33.5,34.5 Z
  "/>

</svg>